<?xml version="1.0" encoding="UTF-8" standalone="no"?>
<!-- Created with Inkscape (http://www.inkscape.org/) -->

<svg
   width="494.52618mm"
   height="588.41858mm"
   viewBox="0 0 494.52618 588.41858"
   version="1.1"
   id="svg372"
   inkscape:version="1.1.1 (c3084ef, 2021-09-22)"
   sodipodi:docname="debug-video-logo-simplified.svg"
   xmlns:inkscape="http://www.inkscape.org/namespaces/inkscape"
   xmlns:sodipodi="http://sodipodi.sourceforge.net/DTD/sodipodi-0.dtd"
   xmlns="http://www.w3.org/2000/svg"
   xmlns:svg="http://www.w3.org/2000/svg">
  <sodipodi:namedview
     id="namedview374"
     pagecolor="#ffffff"
     bordercolor="#666666"
     borderopacity="1.0"
     inkscape:pageshadow="2"
     inkscape:pageopacity="0.0"
     inkscape:pagecheckerboard="0"
     inkscape:document-units="mm"
     showgrid="false"
     fit-margin-top="0"
     fit-margin-left="0"
     fit-margin-right="0"
     fit-margin-bottom="0"
     inkscape:zoom="0.46947952"
     inkscape:cx="853.07236"
     inkscape:cy="1176.8351"
     inkscape:window-width="1312"
     inkscape:window-height="969"
     inkscape:window-x="414"
     inkscape:window-y="24"
     inkscape:window-maximized="0"
     inkscape:current-layer="layer1" />
  <defs
     id="defs369" />
  <g
     inkscape:label="Layer 1"
     inkscape:groupmode="layer"
     id="layer1"
     transform="translate(139.05804,253.06831)">
    <path
       style="fill:#000000;stroke-width:0.221949"
       d="m -138.96561,-10.584023 c -8.29953,-35.714492 34.46264,-51.858324 60.852185,-36.181113 16.586554,-21.603214 -49.397155,-16.541121 -19.928088,-42.646641 25.748048,-9.504682 61.427091,-3.995892 77.677028,-33.784303 9.155013,-21.5746 1.988674,-46.25952 8.8096,-68.72441 5.45596,-26.63338 20.6699118,-57.65535 51.313614,-60.04488 40.596271,-5.27361 82.743131,22.47568 92.554091,62.57518 7.83591,22.82814 12.10443,47.69909 27.02249,67.35552 31.40717,22.376696 68.43505,0.42382 101.43458,1.694 25.26528,14.99729 -8.65725,42.546505 -25.31437,42.418544 -27.48435,28.834426 21.82047,16.122641 38.36008,21.191977 29.69958,2.911452 66.36082,18.800691 67.1658,53.3716501 2.97102,76.8756969 19.02342,153.5184989 11.80135,230.6920589 -3.97297,27.28167 13.58472,72.35032 -25.39078,80.07495 -80.37174,11.42504 -161.73232,14.37683 -242.714567,19.77101 -41.271274,4.27815 -82.5688606,9.74866 -124.175033,6.72405 -26.666777,-5.1152 -64.02469,11.59572 -80.58425,-17.12985 -14.93195,-33.11777 -0.63528,-70.02311 -4.55442,-104.97016 -0.0782,-72.78561 -6.33939,-145.495592 -14.28697,-217.7084405 z m 5.35651,0.136128 c 0.72803,32.142407 8.33619,63.709331 8.2831,95.943935 4.56587,66.48168 9.20146,133.48315 3.02055,199.94305 -2.68351,37.27076 33.633801,47.0459 63.023088,41.56991 46.019324,2.51548 92.135925,1.39587 137.797231,-5.08657 84.644851,-6.75583 170.022891,-7.37806 253.823761,-22.34582 30.34854,-20.4885 8.28967,-61.77041 17.39793,-91.46816 3.89233,-73.77931 -10.79435,-146.795267 -14.0651,-220.316927 -12.79859,-36.984263 -58.70301,-39.889542 -91.86515,-41.893033 -82.19527,-4.442131 -163.973439,6.611873 -245.9090395,10.47744 -31.2266355,-0.117626 -62.3959655,-0.458462 -93.5203635,2.590738 -21.362127,-9.249976 -37.815077,1.308375 -38.473517,26.099311 z M 49.121836,168.88256 C 49.340441,131.8223 58.66143,95.561498 69.922951,60.491463 c 21.89852,19.903623 34.449669,48.464197 58.343129,66.265017 1.62293,26.09709 -34.33982,32.61679 -47.418646,51.29651 -15.104381,18.96332 -38.748743,26.90792 -31.725598,-9.17043 z m 5.025522,1.23986 c 1.85711,35.98174 34.115329,-10.4692 48.164232,-16.38317 28.94285,-11.41243 16.62056,-38.3154 -3.805662,-50.60014 C 90.301378,88.632626 68.675135,56.182805 67.188504,90.010478 60.467608,116.22283 53.82665,142.86994 54.147358,170.12242 Z m 78.689012,97.57116 0.11413,0.69293 z m 141.43691,39.90634 -0.0292,0.24153 z M -106.26364,-46.049857 c 11.560603,2.964032 9.527056,-2.705834 0,0 z m 6.723376,-32.686651 c 16.802501,15.931118 45.983118,9.15787 66.914931,12.336858 27.6192638,1.167412 51.578299,-19.683985 48.187441,-48.18357 1.754257,-29.59724 -4.216106,-66.82373 22.189193,-87.51412 28.333525,-19.11286 63.598609,6.77414 65.955799,37.82992 6.54092,28.56944 -1.01979,71.525385 36.86043,79.63671 37.94701,12.551118 78.60684,4.474065 115.6737,-6.921489 23.87477,-15.928051 -8.90248,-36.244911 -25.17373,-19.511251 -32.92894,10.73807 -82.64994,5.52389 -89.34128,-35.81507 -11.64186,-31.81526 -16.52897,-71.91953 -50.080305,-89.04666 -26.194537,-15.86283 -68.92272,-18.5546 -85.6232712,12.17901 -20.5705228,29.32397 -10.8555968,66.16279 -19.5810708,98.37575 -9.834961,28.070717 -42.315587,35.946022 -68.877548,36.455632 -6.679876,0.921158 -14.189709,3.475548 -17.104289,10.17828 z m 10.126692,32.160818 c -0.174553,-1.410634 -1.803655,1.007648 0,0 z m 19.667907,-9.219168 c 13.66017,3.324286 -3.186802,-16.964272 0,0 z m 11.106997,8.044841 c 41.326028,-1.489322 82.819594,1.333386 123.906711,-4.844599 26.666223,-2.395078 53.388997,-4.339475 80.162287,-4.939008 8.2942,-31.643114 -50.87999,-26.267291 -41.55861,-62.801716 -3.31809,-27.49855 -1.15612,-64.687 -29.701991,-79.48637 -35.751306,-16.30915 -58.3003,27.80392 -53.864272,58.09753 2.139042,30.36056 -1.005691,65.822423 -30.1548392,82.964507 -9.2800378,20.027231 -49.3612688,-23.179496 -48.7892858,11.009656 z m 35.284648,-12.379669 c 6.823414,9.025602 9.829414,-9.677706 0,0 z m 174.23913,-8.487066 c 11.39592,8.567948 1.44452,-17.600794 0,0 z m 5.53942,10.540868 c 12.60019,3.573865 43.27897,-2.54704 18.44604,-14.828462 -6.68164,0.859517 -19.56498,7.351717 -18.44604,14.828462 z m 31.04949,-9.595564 c 12.48243,6.729644 1.64914,-15.588085 0,0 z m 3.5596,8.34763 c 1.56056,-0.54391 -1.56056,-0.54391 0,0 z m 8.79427,-0.504349 c 22.52385,1.166648 -4.12804,-24.339972 -6.73418,-0.70578 1.19674,2.549734 4.85702,1.955351 6.73418,0.70578 z m 14.91639,-7.907258 c 14.97964,9.263634 10.92913,-23.958539 0.26982,-3.96296 -0.0899,1.320987 -0.17988,2.641973 -0.26982,3.96296 z m -339.95233,265.746655 -0.0352,0.42981 z m 189.893683,132.04594 -0.12791,0.16497 z m 28.563966,-3.03985 v 0.15356 z m 79.480041,-5.19438 -0.12791,0.16494 z m 92.74127,-7.26591 -0.0999,0.14709 z"
       id="path167" />
  </g>
</svg>
